<svg xmlns="http://www.w3.org/2000/svg" xmlns:xlink="http://www.w3.org/1999/xlink" width="500" zoomAndPan="magnify" viewBox="0 0 375 374.999991" height="500" preserveAspectRatio="xMidYMid meet" version="1.0"><defs><clipPath id="5aa073a368"><path d="M 131.902344 102.066406 L 243.222656 102.066406 L 243.222656 213.390625 L 131.902344 213.390625 Z M 131.902344 102.066406 " clip-rule="nonzero"/></clipPath><clipPath id="d6f243d712"><path d="M 157.089844 160.96875 L 131.902344 186.15625 L 131.902344 213.265625 L 209.386719 213.265625 Z M 243.097656 135.777344 L 190.800781 188.074219 L 215.992188 213.265625 L 243.097656 213.265625 Z M 187.5 130.558594 L 160.394531 157.664062 L 187.5 184.773438 L 214.609375 157.664062 Z M 165.613281 102.066406 L 217.910156 154.363281 L 243.097656 129.171875 L 243.097656 102.066406 Z M 131.902344 102.066406 L 131.902344 179.550781 L 184.199219 127.253906 L 159.007812 102.066406 Z M 131.902344 102.066406 " clip-rule="nonzero"/></clipPath><clipPath id="86f4f57e85"><path d="M 143 108.671875 L 227.390625 108.671875 L 227.390625 138 L 143 138 Z M 143 108.671875 " clip-rule="nonzero"/></clipPath><clipPath id="e4a40472e6"><path d="M 209.476562 108.75 L 209.476562 116.972656 L 227.273438 116.972656 L 227.273438 108.75 Z M 150.824219 112.421875 L 150.824219 124.125 C 146.359375 124.71875 143.019531 128.527344 143.019531 133.03125 C 143.019531 133.644531 143.082031 134.253906 143.203125 134.851562 L 160.804688 134.851562 C 160.925781 134.253906 160.988281 133.644531 160.988281 133.03125 C 160.988281 128.527344 157.648438 124.714844 153.183594 124.125 L 153.183594 112.421875 Z M 149.765625 135.578125 C 149.734375 135.714844 149.722656 135.855469 149.722656 135.992188 C 149.722656 137.089844 150.609375 137.976562 151.703125 137.976562 C 152.800781 137.976562 153.6875 137.089844 153.6875 135.992188 C 153.6875 135.855469 153.671875 135.714844 153.644531 135.578125 Z M 149.765625 135.578125 " clip-rule="nonzero"/></clipPath><clipPath id="63d13fce90"><path d="M 209.132812 108.40625 L 227.617188 108.40625 L 227.617188 109.09375 L 209.132812 109.09375 Z M 226.929688 109.09375 L 227.617188 109.09375 L 227.617188 116.628906 L 226.929688 116.628906 Z M 209.132812 109.09375 L 209.820312 109.09375 L 209.820312 116.628906 L 209.132812 116.628906 Z M 209.132812 116.628906 L 227.617188 116.628906 L 227.617188 117.316406 L 209.132812 117.316406 Z M 209.132812 116.628906 " clip-rule="nonzero"/></clipPath><clipPath id="0d7afd6638"><path d="M 216.546875 111 L 220.285156 111 L 220.285156 114.78125 L 216.546875 114.78125 Z M 216.546875 111 " clip-rule="nonzero"/></clipPath><clipPath id="ab20ba23ac"><path d="M 216.554688 112.859375 L 218.375 111.039062 L 220.195312 112.859375 L 218.375 114.679688 Z M 216.554688 112.859375 " clip-rule="nonzero"/></clipPath><clipPath id="37c979a497"><path d="M 216.046875 110.542969 L 220.785156 110.542969 L 220.785156 115.28125 L 216.046875 115.28125 Z M 216.046875 110.542969 " clip-rule="nonzero"/></clipPath><clipPath id="3aa54f780b"><path d="M 216.308594 112.617188 L 218.128906 110.796875 L 218.375 110.554688 L 220.679688 112.859375 L 220.4375 113.105469 L 218.375 115.167969 L 218.128906 114.925781 L 216.308594 113.105469 L 216.066406 112.859375 L 216.308594 112.617188 M 216.796875 113.105469 L 216.554688 112.859375 L 216.796875 112.617188 L 218.617188 114.4375 L 218.375 114.679688 L 218.128906 114.4375 L 219.953125 112.617188 L 220.195312 112.859375 L 219.953125 113.105469 L 218.128906 111.28125 L 218.375 111.039062 L 218.617188 111.28125 Z M 216.796875 113.105469 " clip-rule="nonzero"/></clipPath><clipPath id="1e62502e17"><path d="M 209.476562 116.972656 L 227.273438 116.972656 L 227.273438 125.195312 L 209.476562 125.195312 Z M 209.476562 116.972656 " clip-rule="nonzero"/></clipPath><clipPath id="8fc3e290ad"><path d="M 209.132812 116.628906 L 227.617188 116.628906 L 227.617188 117.316406 L 209.132812 117.316406 Z M 226.929688 117.316406 L 227.617188 117.316406 L 227.617188 124.847656 L 226.929688 124.847656 Z M 209.132812 117.316406 L 209.820312 117.316406 L 209.820312 124.847656 L 209.132812 124.847656 Z M 209.132812 124.847656 L 227.617188 124.847656 L 227.617188 125.539062 L 209.132812 125.539062 Z M 209.132812 124.847656 " clip-rule="nonzero"/></clipPath><clipPath id="4aa5e28611"><path d="M 216.546875 119.144531 L 220.285156 119.144531 L 220.285156 123 L 216.546875 123 Z M 216.546875 119.144531 " clip-rule="nonzero"/></clipPath><clipPath id="b99deb6ce0"><path d="M 216.554688 121.082031 L 218.375 119.261719 L 220.195312 121.082031 L 218.375 122.902344 Z M 216.554688 121.082031 " clip-rule="nonzero"/></clipPath><clipPath id="90c3e7bc4e"><path d="M 216.046875 118.769531 L 220.785156 118.769531 L 220.785156 123.507812 L 216.046875 123.507812 Z M 216.046875 118.769531 " clip-rule="nonzero"/></clipPath><clipPath id="06da2a9d65"><path d="M 216.308594 120.839844 L 218.375 118.773438 L 218.617188 119.019531 L 220.679688 121.082031 L 218.617188 123.144531 L 218.375 123.390625 L 216.066406 121.082031 L 216.308594 120.839844 M 216.796875 121.324219 L 216.554688 121.082031 L 216.796875 120.839844 L 218.617188 122.660156 L 218.375 122.902344 L 218.128906 122.660156 L 219.953125 120.839844 L 220.195312 121.082031 L 219.953125 121.324219 L 218.128906 119.503906 L 218.375 119.261719 L 218.617188 119.503906 Z M 216.796875 121.324219 " clip-rule="nonzero"/></clipPath><clipPath id="cddee77b0b"><path d="M 209.476562 125.195312 L 227.273438 125.195312 L 227.273438 133.414062 L 209.476562 133.414062 Z M 209.476562 125.195312 " clip-rule="nonzero"/></clipPath><clipPath id="243c09a278"><path d="M 209.132812 124.847656 L 227.617188 124.847656 L 227.617188 125.539062 L 209.132812 125.539062 Z M 226.929688 125.539062 L 227.617188 125.539062 L 227.617188 133.070312 L 226.929688 133.070312 Z M 209.132812 125.539062 L 209.820312 125.539062 L 209.820312 133.070312 L 209.132812 133.070312 Z M 209.132812 133.070312 L 227.617188 133.070312 L 227.617188 133.761719 L 209.132812 133.761719 Z M 209.132812 133.070312 " clip-rule="nonzero"/></clipPath><clipPath id="6bd005e81e"><path d="M 216.546875 127.371094 L 220.285156 127.371094 L 220.285156 131.234375 L 216.546875 131.234375 Z M 216.546875 127.371094 " clip-rule="nonzero"/></clipPath><clipPath id="e5320e1e86"><path d="M 216.554688 129.304688 L 218.375 127.484375 L 220.195312 129.304688 L 218.375 131.125 Z M 216.554688 129.304688 " clip-rule="nonzero"/></clipPath><clipPath id="2f8c07506a"><path d="M 216.046875 126.875 L 220.785156 126.875 L 220.785156 131.734375 L 216.046875 131.734375 Z M 216.046875 126.875 " clip-rule="nonzero"/></clipPath><clipPath id="fbb20151eb"><path d="M 216.308594 129.0625 L 218.128906 127.238281 L 218.375 126.996094 L 218.617188 127.238281 L 220.4375 129.0625 L 220.679688 129.304688 L 218.375 131.609375 L 218.128906 131.367188 L 216.066406 129.304688 L 216.308594 129.0625 M 216.796875 129.546875 L 216.554688 129.304688 L 216.796875 129.0625 L 218.617188 130.882812 L 218.375 131.125 L 218.128906 130.882812 L 219.953125 129.0625 L 220.195312 129.304688 L 219.953125 129.546875 L 218.128906 127.726562 L 218.375 127.484375 L 218.617188 127.726562 Z M 216.796875 129.546875 " clip-rule="nonzero"/></clipPath><clipPath id="a9eebd81d0"><path d="M 150.105469 179.371094 L 163.121094 179.371094 L 163.121094 190.410156 L 150.105469 190.410156 Z M 150.105469 179.371094 " clip-rule="nonzero"/></clipPath><clipPath id="95db34501e"><path d="M 149.789062 179.058594 L 163.4375 179.058594 L 163.4375 179.6875 L 149.789062 179.6875 Z M 162.808594 179.6875 L 163.4375 179.6875 L 163.4375 190.09375 L 162.808594 190.09375 Z M 149.789062 179.6875 L 150.417969 179.6875 L 150.417969 190.09375 L 149.789062 190.09375 Z M 149.789062 190.09375 L 163.4375 190.09375 L 163.4375 190.722656 L 149.789062 190.722656 Z M 149.789062 190.09375 " clip-rule="nonzero"/></clipPath><clipPath id="f5b5e6463a"><path d="M 150.105469 190.410156 L 163.121094 190.410156 L 163.121094 194.824219 L 150.105469 194.824219 Z M 150.105469 190.410156 " clip-rule="nonzero"/></clipPath><clipPath id="cc612defd1"><path d="M 149.789062 190.09375 L 163.4375 190.09375 L 163.4375 190.722656 L 149.789062 190.722656 Z M 162.808594 190.722656 L 163.4375 190.722656 L 163.4375 194.511719 L 162.808594 194.511719 Z M 149.789062 190.722656 L 150.417969 190.722656 L 150.417969 194.511719 L 149.789062 194.511719 Z M 149.789062 194.511719 L 163.4375 194.511719 L 163.4375 195.140625 L 149.789062 195.140625 Z M 149.789062 194.511719 " clip-rule="nonzero"/></clipPath><clipPath id="3d68f0fbd3"><path d="M 163.121094 186.652344 L 167.539062 186.652344 L 167.539062 194.828125 L 163.121094 194.828125 Z M 145.6875 186.652344 L 150.105469 186.652344 L 150.105469 194.828125 L 145.6875 194.828125 Z M 145.6875 194.828125 L 167.539062 194.828125 L 167.539062 199.125 L 145.6875 199.125 Z M 150.105469 199.125 L 163.121094 199.125 L 163.121094 199.242188 L 150.105469 199.242188 Z M 150.105469 199.125 " clip-rule="nonzero"/></clipPath><clipPath id="c42f66babd"><path d="M 145.375 186.335938 L 150.417969 186.335938 L 150.417969 186.652344 L 145.375 186.652344 Z M 145.375 186.652344 L 150.417969 186.652344 L 150.417969 186.964844 L 145.375 186.964844 Z M 162.808594 186.335938 L 167.851562 186.335938 L 167.851562 186.964844 L 162.808594 186.964844 Z M 162.808594 186.964844 L 163.4375 186.964844 L 163.4375 194.511719 L 162.808594 194.511719 Z M 149.789062 186.964844 L 150.417969 186.964844 L 150.417969 194.511719 L 149.789062 194.511719 Z M 149.789062 194.511719 L 163.4375 194.511719 L 163.4375 195.140625 L 149.789062 195.140625 Z M 145.375 186.964844 L 146.003906 186.964844 L 146.003906 198.8125 L 145.375 198.8125 Z M 167.222656 186.964844 L 167.851562 186.964844 L 167.851562 198.8125 L 167.222656 198.8125 Z M 162.808594 198.8125 L 167.851562 198.8125 L 167.851562 198.925781 L 162.808594 198.925781 Z M 145.375 198.8125 L 150.417969 198.8125 L 150.417969 198.925781 L 145.375 198.925781 Z M 145.375 198.925781 L 167.851562 198.925781 L 167.851562 199.441406 L 145.375 199.441406 Z M 149.789062 199.441406 L 163.4375 199.441406 L 163.4375 199.554688 L 149.789062 199.554688 Z M 149.789062 199.441406 " clip-rule="nonzero"/></clipPath><clipPath id="976c79c029"><path d="M 150.105469 199.242188 L 152.664062 199.242188 L 152.664062 204.671875 L 150.105469 204.671875 Z M 150.105469 199.242188 " clip-rule="nonzero"/></clipPath><clipPath id="21484fc55f"><path d="M 149.789062 198.925781 L 150.105469 198.925781 L 150.105469 198.929688 L 149.789062 198.929688 Z M 149.789062 198.929688 L 152.980469 198.929688 L 152.980469 199.554688 L 149.789062 199.554688 Z M 152.351562 199.554688 L 152.980469 199.554688 L 152.980469 204.359375 L 152.351562 204.359375 Z M 149.789062 199.554688 L 150.417969 199.554688 L 150.417969 204.359375 L 149.789062 204.359375 Z M 149.789062 204.359375 L 152.980469 204.359375 L 152.980469 204.988281 L 149.789062 204.988281 Z M 149.789062 204.359375 " clip-rule="nonzero"/></clipPath><clipPath id="e11395cb37"><path d="M 160.558594 199.242188 L 163.121094 199.242188 L 163.121094 204.671875 L 160.558594 204.671875 Z M 160.558594 199.242188 " clip-rule="nonzero"/></clipPath><clipPath id="89c62170d0"><path d="M 160.246094 198.925781 L 160.558594 198.925781 L 160.558594 198.929688 L 160.246094 198.929688 Z M 160.246094 198.929688 L 163.4375 198.929688 L 163.4375 199.554688 L 160.246094 199.554688 Z M 162.808594 199.554688 L 163.4375 199.554688 L 163.4375 204.359375 L 162.808594 204.359375 Z M 160.246094 199.554688 L 160.875 199.554688 L 160.875 204.359375 L 160.246094 204.359375 Z M 160.246094 204.359375 L 163.4375 204.359375 L 163.4375 204.988281 L 160.246094 204.988281 Z M 160.246094 204.359375 " clip-rule="nonzero"/></clipPath><clipPath id="8f4e9e721e"><path d="M 219.789062 184.09375 L 232.628906 184.09375 L 232.628906 203.042969 L 219.789062 203.042969 Z M 219.789062 184.09375 " clip-rule="nonzero"/></clipPath><clipPath id="75c71b33d6"><path d="M 220.324219 184.164062 C 228.765625 188.914062 211.1875 198.40625 226.167969 203.019531 C 241.144531 198.40625 223.746094 188.914062 232.1875 184.164062 Z M 220.324219 184.164062 " clip-rule="nonzero"/></clipPath><clipPath id="db5083015a"><path d="M 219.789062 184.09375 L 232.628906 184.09375 L 232.628906 203.167969 L 219.789062 203.167969 Z M 219.789062 184.09375 " clip-rule="nonzero"/></clipPath><clipPath id="5b6d79daf6"><path d="M 220.339844 184.136719 C 224.082031 186.246094 222.738281 189.285156 221.371094 192.390625 C 219.902344 195.714844 218.40625 199.113281 222.894531 201.640625 C 223.753906 202.125 224.835938 202.578125 226.175781 202.988281 L 226.167969 203.019531 L 226.160156 202.988281 C 232.652344 200.988281 233.039062 198.082031 232.101562 195.042969 C 231.832031 194.160156 231.449219 193.269531 231.070312 192.382812 C 230.695312 191.515625 230.324219 190.652344 230.066406 189.8125 C 229.402344 187.652344 229.480469 185.652344 232.171875 184.136719 L 232.1875 184.164062 L 232.1875 184.195312 L 226.253906 184.195312 L 226.253906 184.164062 L 226.253906 184.195312 L 220.324219 184.195312 L 220.324219 184.164062 L 220.339844 184.136719 M 220.308594 184.191406 L 220.320312 184.132812 L 232.1875 184.132812 L 232.203125 184.191406 C 229.542969 185.6875 229.464844 187.652344 230.125 189.796875 C 230.382812 190.628906 230.75 191.492188 231.125 192.359375 C 231.503906 193.242188 231.886719 194.140625 232.160156 195.023438 C 233.105469 198.097656 232.695312 201.039062 226.175781 203.050781 L 226.15625 203.050781 C 224.8125 202.636719 223.726562 202.179688 222.863281 201.695312 C 218.320312 199.136719 219.847656 195.679688 221.3125 192.367188 C 222.683594 189.25 223.996094 186.269531 220.308594 184.191406 Z M 220.308594 184.191406 " clip-rule="nonzero"/></clipPath><clipPath id="615dbbab2c"><path d="M 176.03125 145.820312 L 231.753906 145.820312 L 231.753906 183.59375 L 176.03125 183.59375 Z M 176.03125 145.820312 " clip-rule="nonzero"/></clipPath><clipPath id="df2f3257a9"><path d="M 187.261719 145.917969 C 182.746094 146.210938 179.152344 149.808594 178.855469 154.324219 L 187.261719 154.324219 Z M 188.433594 145.917969 L 188.433594 154.324219 L 196.839844 154.324219 C 196.546875 149.808594 192.949219 146.210938 188.433594 145.917969 Z M 178.835938 155.496094 L 178.835938 164.859375 L 187.261719 164.859375 L 187.261719 155.496094 Z M 188.433594 155.496094 L 188.433594 164.859375 L 196.859375 164.859375 L 196.859375 155.496094 Z M 176.097656 165.839844 L 176.097656 167.015625 L 199.601562 167.015625 L 199.601562 165.839844 Z M 226.125 169.308594 C 225.019531 170.613281 224.414062 172.265625 224.414062 173.976562 C 224.414062 175.683594 225.019531 177.335938 226.125 178.640625 C 227.226562 177.335938 227.832031 175.683594 227.832031 173.976562 C 227.832031 172.265625 227.226562 170.613281 226.125 169.308594 Z M 220.683594 175.433594 C 220.378906 177.113281 220.679688 178.847656 221.535156 180.328125 C 222.386719 181.808594 223.738281 182.9375 225.347656 183.515625 C 225.652344 181.832031 225.347656 180.097656 224.496094 178.617188 C 223.640625 177.136719 222.289062 176.011719 220.683594 175.433594 Z M 231.566406 175.433594 C 229.957031 176.011719 228.605469 177.140625 227.753906 178.617188 C 226.898438 180.097656 226.597656 181.832031 226.902344 183.515625 C 228.507812 182.9375 229.859375 181.808594 230.714844 180.328125 C 231.566406 178.851562 231.867188 177.113281 231.566406 175.433594 Z M 231.566406 175.433594 " clip-rule="nonzero"/></clipPath></defs><rect x="-37.5" width="450" fill="#ffffff" y="-37.499999" height="449.999989" fill-opacity="1"/><rect x="-37.5" width="450" fill="#ffffff" y="-37.499999" height="449.999989" fill-opacity="1"/><g clip-path="url(#5aa073a368)"><g clip-path="url(#d6f243d712)"><path fill="#806600" d="M 131.277344 101.441406 L 243.722656 101.441406 L 243.722656 213.886719 L 131.277344 213.886719 Z M 131.277344 101.441406 " fill-opacity="1" fill-rule="nonzero"/></g></g><g clip-path="url(#86f4f57e85)"><g clip-path="url(#e4a40472e6)"><path fill="#ffffff" d="M 131.277344 101.441406 L 243.722656 101.441406 L 243.722656 213.886719 L 131.277344 213.886719 Z M 131.277344 101.441406 " fill-opacity="1" fill-rule="nonzero"/></g></g><g clip-path="url(#63d13fce90)"><path fill="#806600" d="M 131.277344 101.441406 L 243.722656 101.441406 L 243.722656 213.886719 L 131.277344 213.886719 Z M 131.277344 101.441406 " fill-opacity="1" fill-rule="nonzero"/></g><g clip-path="url(#0d7afd6638)"><g clip-path="url(#ab20ba23ac)"><path fill="#ffffff" d="M 131.277344 101.441406 L 243.722656 101.441406 L 243.722656 213.886719 L 131.277344 213.886719 Z M 131.277344 101.441406 " fill-opacity="1" fill-rule="nonzero"/></g></g><g clip-path="url(#37c979a497)"><g clip-path="url(#3aa54f780b)"><path fill="#806600" d="M 131.277344 101.441406 L 243.722656 101.441406 L 243.722656 213.886719 L 131.277344 213.886719 Z M 131.277344 101.441406 " fill-opacity="1" fill-rule="nonzero"/></g></g><g clip-path="url(#1e62502e17)"><path fill="#ffffff" d="M 131.277344 101.441406 L 243.722656 101.441406 L 243.722656 213.886719 L 131.277344 213.886719 Z M 131.277344 101.441406 " fill-opacity="1" fill-rule="nonzero"/></g><g clip-path="url(#8fc3e290ad)"><path fill="#806600" d="M 131.277344 101.441406 L 243.722656 101.441406 L 243.722656 213.886719 L 131.277344 213.886719 Z M 131.277344 101.441406 " fill-opacity="1" fill-rule="nonzero"/></g><g clip-path="url(#4aa5e28611)"><g clip-path="url(#b99deb6ce0)"><path fill="#ffffff" d="M 131.277344 101.441406 L 243.722656 101.441406 L 243.722656 213.886719 L 131.277344 213.886719 Z M 131.277344 101.441406 " fill-opacity="1" fill-rule="nonzero"/></g></g><g clip-path="url(#90c3e7bc4e)"><g clip-path="url(#06da2a9d65)"><path fill="#806600" d="M 131.277344 101.441406 L 243.722656 101.441406 L 243.722656 213.886719 L 131.277344 213.886719 Z M 131.277344 101.441406 " fill-opacity="1" fill-rule="nonzero"/></g></g><g clip-path="url(#cddee77b0b)"><path fill="#ffffff" d="M 131.277344 101.441406 L 243.722656 101.441406 L 243.722656 213.886719 L 131.277344 213.886719 Z M 131.277344 101.441406 " fill-opacity="1" fill-rule="nonzero"/></g><g clip-path="url(#243c09a278)"><path fill="#806600" d="M 131.277344 101.441406 L 243.722656 101.441406 L 243.722656 213.886719 L 131.277344 213.886719 Z M 131.277344 101.441406 " fill-opacity="1" fill-rule="nonzero"/></g><g clip-path="url(#6bd005e81e)"><g clip-path="url(#e5320e1e86)"><path fill="#ffffff" d="M 131.277344 101.441406 L 243.722656 101.441406 L 243.722656 213.886719 L 131.277344 213.886719 Z M 131.277344 101.441406 " fill-opacity="1" fill-rule="nonzero"/></g></g><g clip-path="url(#2f8c07506a)"><g clip-path="url(#fbb20151eb)"><path fill="#806600" d="M 131.277344 101.441406 L 243.722656 101.441406 L 243.722656 213.886719 L 131.277344 213.886719 Z M 131.277344 101.441406 " fill-opacity="1" fill-rule="nonzero"/></g></g><g clip-path="url(#a9eebd81d0)"><path fill="#ffffff" d="M 131.277344 101.441406 L 243.722656 101.441406 L 243.722656 213.886719 L 131.277344 213.886719 Z M 131.277344 101.441406 " fill-opacity="1" fill-rule="nonzero"/></g><g clip-path="url(#95db34501e)"><path fill="#806600" d="M 131.277344 101.441406 L 243.722656 101.441406 L 243.722656 213.886719 L 131.277344 213.886719 Z M 131.277344 101.441406 " fill-opacity="1" fill-rule="nonzero"/></g><g clip-path="url(#f5b5e6463a)"><path fill="#ffffff" d="M 131.277344 101.441406 L 243.722656 101.441406 L 243.722656 213.886719 L 131.277344 213.886719 Z M 131.277344 101.441406 " fill-opacity="1" fill-rule="nonzero"/></g><g clip-path="url(#cc612defd1)"><path fill="#806600" d="M 131.277344 101.441406 L 243.722656 101.441406 L 243.722656 213.886719 L 131.277344 213.886719 Z M 131.277344 101.441406 " fill-opacity="1" fill-rule="nonzero"/></g><g clip-path="url(#3d68f0fbd3)"><path fill="#ffffff" d="M 131.277344 101.441406 L 243.722656 101.441406 L 243.722656 213.886719 L 131.277344 213.886719 Z M 131.277344 101.441406 " fill-opacity="1" fill-rule="nonzero"/></g><g clip-path="url(#c42f66babd)"><path fill="#806600" d="M 131.277344 101.441406 L 243.722656 101.441406 L 243.722656 213.886719 L 131.277344 213.886719 Z M 131.277344 101.441406 " fill-opacity="1" fill-rule="nonzero"/></g><g clip-path="url(#976c79c029)"><path fill="#ffffff" d="M 131.277344 101.441406 L 243.722656 101.441406 L 243.722656 213.886719 L 131.277344 213.886719 Z M 131.277344 101.441406 " fill-opacity="1" fill-rule="nonzero"/></g><g clip-path="url(#21484fc55f)"><path fill="#806600" d="M 131.277344 101.441406 L 243.722656 101.441406 L 243.722656 213.886719 L 131.277344 213.886719 Z M 131.277344 101.441406 " fill-opacity="1" fill-rule="nonzero"/></g><g clip-path="url(#e11395cb37)"><path fill="#ffffff" d="M 131.277344 101.441406 L 243.722656 101.441406 L 243.722656 213.886719 L 131.277344 213.886719 Z M 131.277344 101.441406 " fill-opacity="1" fill-rule="nonzero"/></g><g clip-path="url(#89c62170d0)"><path fill="#806600" d="M 131.277344 101.441406 L 243.722656 101.441406 L 243.722656 213.886719 L 131.277344 213.886719 Z M 131.277344 101.441406 " fill-opacity="1" fill-rule="nonzero"/></g><g clip-path="url(#8f4e9e721e)"><g clip-path="url(#75c71b33d6)"><path fill="#ffffff" d="M 131.277344 101.441406 L 243.722656 101.441406 L 243.722656 213.886719 L 131.277344 213.886719 Z M 131.277344 101.441406 " fill-opacity="1" fill-rule="nonzero"/></g></g><g clip-path="url(#db5083015a)"><g clip-path="url(#5b6d79daf6)"><path fill="#000000" d="M 131.277344 101.441406 L 243.722656 101.441406 L 243.722656 213.886719 L 131.277344 213.886719 Z M 131.277344 101.441406 " fill-opacity="1" fill-rule="nonzero"/></g></g><g clip-path="url(#615dbbab2c)"><g clip-path="url(#df2f3257a9)"><path fill="#ffffff" d="M 131.277344 101.441406 L 243.722656 101.441406 L 243.722656 213.886719 L 131.277344 213.886719 Z M 131.277344 101.441406 " fill-opacity="1" fill-rule="nonzero"/></g></g></svg>